<?xml version="1.0" encoding="UTF-8"?>
<svg xmlns="http://www.w3.org/2000/svg" xmlns:xlink="http://www.w3.org/1999/xlink" id="Logo-color_rgb" viewBox="0 0 396 140">
  <defs>
    <style>
      .cls-1 {
        fill: #f2c33d;
      }

      .cls-2 {
        fill: #231815;
      }

      .cls-3 {
        fill: #fff;
      }

      .cls-4 {
        fill: none;
      }

      .cls-5 {
        fill: #a4b0da;
      }

      .cls-6 {
        fill: #53628a;
      }

      .cls-7 {
        fill: #c9c5c0;
      }

      .cls-8 {
        fill: url(#_名称未設定グラデーション_92);
      }

      .cls-9 {
        fill: #116845;
      }

      .cls-10 {
        clip-path: url(#clippath);
      }

      .cls-11 {
        fill: #e61919;
      }
    </style>
    <clipPath id="clippath">
      <rect class="cls-4" width="396" height="140"></rect>
    </clipPath>
    <linearGradient id="_名称未設定グラデーション_92" data-name="名称未設定グラデーション 92" x1="18.83" y1="132.28" x2="174.74" y2="132.28" gradientUnits="userSpaceOnUse">
      <stop offset="0" stop-color="#fff"></stop>
      <stop offset=".03" stop-color="#dddbda"></stop>
      <stop offset=".11" stop-color="#9b9695"></stop>
      <stop offset=".17" stop-color="#67605e"></stop>
      <stop offset=".23" stop-color="#423836"></stop>
      <stop offset=".27" stop-color="#2b201d"></stop>
      <stop offset=".3" stop-color="#231815"></stop>
      <stop offset=".36" stop-color="#2b201d"></stop>
      <stop offset=".47" stop-color="#423836"></stop>
      <stop offset=".6" stop-color="#67605e"></stop>
      <stop offset=".75" stop-color="#9b9695"></stop>
      <stop offset=".92" stop-color="#dddbda"></stop>
      <stop offset="1" stop-color="#fff"></stop>
    </linearGradient>
  </defs>
  <rect class="cls-4" width="396" height="140"></rect>
  <g class="cls-10">
    <g>
      <rect class="cls-8" x="18.83" y="130.01" width="155.91" height="4.54"></rect>
      <path class="cls-2" d="M187.91,22.12c0-1.33-.53-2.53-1.37-3.43.25-.54.4-1.14.4-1.78,0-1.36-.64-2.56-1.63-3.35,1.21-.8,2.02-2.17,2.02-3.73,0-2.46-2-4.46-4.46-4.46s-4.46,2-4.46,4.46c0,.76.21,1.47.55,2.1-.68-.46-1.51-.73-2.4-.73-2.37,0-4.3,1.92-4.3,4.3,0,.4.07.78.17,1.14-.57-.31-1.21-.51-1.91-.51-2.19,0-3.97,1.78-3.97,3.97,0,.1.02.2.03.3-.01,0-.02,0-.03,0-2.37,0-4.3,1.92-4.3,4.3,0,.44.09.86.21,1.25-.47-.22-.98-.34-1.52-.34-2.01,0-3.64,1.63-3.64,3.64,0,.29.04.57.11.83-.37-.12-.75-.2-1.16-.2-2.04,0-3.69,1.65-3.69,3.69,0,.44.09.85.23,1.24-.22-.04-.45-.07-.68-.07-2.03,0-3.67,1.64-3.67,3.67,0,.41.08.8.21,1.17-.29-.07-.59-.12-.9-.12-2.16,0-3.91,1.75-3.91,3.91,0,.5.1.96.27,1.4-.53-.28-1.13-.45-1.78-.45-2.13,0-3.86,1.73-3.86,3.86,0,.52.11,1.01.29,1.47-.74-.53-1.64-.85-2.62-.85-2.5,0-4.53,2.03-4.53,4.52,0,.34.04.67.12.99-.49-.18-1.02-.3-1.57-.3-2.5,0-4.52,2.03-4.52,4.52,0,.37.06.72.14,1.07-3.32-1.69-11.46-5.83-14.51-7.46-3.88-2.06-11.5-6.29-17.06-7.15-1.8-.28-3.75-.3-5.51-.23,3.26-1.45,6.95-3.54,7.33-5.15.02-.09.04-.18.04-.26,0-.11-.03-.23-.06-.34,0-.03-.02-.05-.03-.08-.04-.11-.1-.22-.18-.33,0,0,0-.01-.01-.02-.08-.11-.17-.21-.27-.31-.03-.03-.05-.05-.08-.08-.11-.11-.23-.21-.37-.32-.01,0-.03-.02-.04-.03-.13-.1-.27-.19-.42-.29-.04-.03-.08-.05-.12-.08-.16-.1-.33-.2-.51-.3-.02-.01-.05-.02-.07-.04-.16-.09-.34-.17-.51-.26-.05-.02-.1-.05-.15-.07-.2-.09-.4-.18-.6-.27-.03-.01-.06-.02-.09-.04-.19-.08-.38-.16-.57-.24-.05-.02-.11-.04-.16-.06-.22-.09-.44-.17-.66-.25-.03-.01-.06-.02-.1-.03-.2-.07-.4-.14-.6-.21-.05-.02-.1-.03-.15-.05-.22-.08-.45-.15-.67-.22-.03,0-.05-.02-.08-.03-.2-.07-.4-.13-.6-.19-.04-.01-.09-.03-.13-.04-.22-.07-.43-.13-.64-.19-.01,0-.03,0-.04-.01-.21-.06-.4-.12-.59-.17-.02,0-.03,0-.05-.01-.2-.06-.39-.11-.58-.16,3.43-19.15-18.38-25.32-27.37-25.3-19.12-.66-36.18,11.39-42.55,38.69-6.83,29.33,6.17,52.73,25.56,63.29,6.5,3.54,11.66,6.25,16.74,8.18-.99,1.19-2.42,2.82-3.44,3.69-.86.73-1.58,1.33-2.13,1.91-4.53.49-8.05,4.47-8.05,9.31h17.99c0-2.7-1.11-5.13-2.87-6.84.05-.28.14-.53.27-.72.51-.75,4.63-3.07,7.66-4.7,3.93.72,8.23,1.04,13.37.98,1.54-.02,3.01-.05,4.41-.1.17.39.22.88.08,1.5-.05.23-.13.44-.19.66-4.25.75-7.48,4.59-7.48,9.22h17.99c0-3.47-1.82-6.5-4.52-8.11l2.24-3.81c11.08-1.16,16.94-3.84,22.2-8.01,10.74-8.49,18.2-22.04,18.2-22.04l.8-3.17s.38.12,1.04.32c.95,1.97,2.97,3.34,5.31,3.34.79,0,1.55-.16,2.24-.44,1.15,1.72,3.1,2.86,5.33,2.86,1.44,0,2.77-.48,3.84-1.29,5.15,1.12,9.67,1.72,10.7.71,4.43-4.39-20.88-24.39-24.32-26.11,2.27-.5,4.06-2.28,4.53-4.56.1,0,.2.02.3.02,3.68,0,6.67-2.85,6.92-6.47,2.82-.14,5.12-2.25,5.54-4.98.08,0,.15.02.22.02,3.73,0,6.76-3.02,6.76-6.76,0-.02,0-.05,0-.07.11,0,.22.02.34.02,3.93,0,7.12-3.14,7.22-7.04.07,0,.15.01.22.01,3.3,0,5.99-2.53,6.27-5.76.02,0,.03,0,.05,0,3.18,0,5.75-2.58,5.75-5.75,0-.11-.01-.23-.02-.34,2.2-.55,3.83-2.52,3.83-4.88Z"></path>
      <circle class="cls-11" cx="118.96" cy="96.53" r="8.68"></circle>
      <circle class="cls-7" cx="79.3" cy="93.71" r="8.62"></circle>
      <circle class="cls-9" cx="68.18" cy="111.6" r="8.66"></circle>
      <circle class="cls-11" cx="62.52" cy="94.47" r="8.09"></circle>
      <circle class="cls-3" cx="51.22" cy="105.4" r="7.09"></circle>
      <circle class="cls-3" cx="64.99" cy="80.44" r="5.57"></circle>
      <circle class="cls-3" cx="39.19" cy="79.58" r="7.39"></circle>
      <circle class="cls-1" cx="37.54" cy="98.93" r="5.22"></circle>
      <circle class="cls-3" cx="87.96" cy="80.23" r="5.59"></circle>
      <circle class="cls-3" cx="38.5" cy="67.94" r="3.96"></circle>
      <circle class="cls-3" cx="126.93" cy="76.62" r="6.12"></circle>
      <circle class="cls-3" cx="53.9" cy="71.98" r="3.15"></circle>
      <circle class="cls-3" cx="44.13" cy="41.2" r="3.25"></circle>
      <circle class="cls-3" cx="28.97" cy="61.54" r="4.04"></circle>
      <circle class="cls-3" cx="58.32" cy="43.25" r="3.36"></circle>
      <circle class="cls-3" cx="74.27" cy="53.22" r="3.06"></circle>
      <circle class="cls-3" cx="75.11" cy="59.79" r="3.06"></circle>
      <circle class="cls-1" cx="107.18" cy="71.32" r="6.12"></circle>
      <circle class="cls-3" cx="54.68" cy="48.75" r="3"></circle>
      <circle class="cls-3" cx="43.22" cy="47.83" r="3"></circle>
      <circle class="cls-3" cx="43.22" cy="54.24" r="3"></circle>
      <circle class="cls-3" cx="36.44" cy="53.31" r="3"></circle>
      <circle class="cls-5" cx="52.56" cy="81.01" r="5.34"></circle>
      <circle class="cls-3" cx="46.22" cy="92.01" r="5.04"></circle>
      <circle class="cls-7" cx="29.67" cy="89.11" r="5.42"></circle>
      <circle class="cls-5" cx="88.19" cy="111.32" r="8.94"></circle>
      <circle class="cls-6" cx="99.27" cy="92.85" r="9.34"></circle>
      <circle class="cls-1" cx="106.65" cy="109.38" r="8"></circle>
      <circle class="cls-3" cx="78.17" cy="29.5" r="3.07"></circle>
      <circle class="cls-3" cx="74.05" cy="24.38" r="3.07"></circle>
      <circle class="cls-3" cx="68.18" cy="21.59" r="3.28"></circle>
      <circle class="cls-3" cx="65.7" cy="27.68" r="3.05"></circle>
      <circle class="cls-3" cx="62.31" cy="19.07" r="3.05"></circle>
      <circle class="cls-3" cx="50.08" cy="20.54" r="3.05"></circle>
      <circle class="cls-3" cx="53.1" cy="25.87" r="3.05"></circle>
      <circle class="cls-3" cx="44.72" cy="23.58" r="3.05"></circle>
      <circle class="cls-3" cx="53.9" cy="31.57" r="3.05"></circle>
      <circle class="cls-3" cx="51.27" cy="42.41" r="3.05"></circle>
      <circle class="cls-3" cx="36.44" cy="46.91" r="3.05"></circle>
      <circle class="cls-3" cx="99.98" cy="62.34" r="3.05"></circle>
      <circle class="cls-3" cx="145" cy="78.83" r="4.21"></circle>
      <circle class="cls-3" cx="152.73" cy="83.7" r="3.05"></circle>
      <circle class="cls-3" cx="86" cy="52.74" r="3.05"></circle>
      <circle class="cls-7" cx="90.22" cy="47.83" r="2.6"></circle>
      <circle class="cls-3" cx="84.88" cy="47.65" r="2.6"></circle>
      <circle class="cls-3" cx="95.68" cy="48.85" r="2.75"></circle>
      <circle class="cls-1" cx="106.53" cy="54.24" r="3.05"></circle>
      <circle class="cls-6" cx="114.3" cy="57.85" r="3.05"></circle>
      <circle class="cls-5" cx="120.45" cy="60.9" r="3.05"></circle>
      <circle class="cls-3" cx="131.52" cy="67.94" r="3.05"></circle>
      <circle class="cls-3" cx="92.51" cy="54.24" r="3.05"></circle>
      <circle class="cls-3" cx="80.32" cy="56.27" r="3.05"></circle>
      <circle class="cls-3" cx="81.34" cy="62.41" r="3.05"></circle>
      <circle class="cls-3" cx="87.17" cy="58.73" r="3.05"></circle>
      <circle class="cls-9" cx="93.74" cy="60.57" r="3.05"></circle>
      <circle class="cls-3" cx="70.55" cy="72.99" r="3.05"></circle>
      <circle class="cls-3" cx="80.7" cy="70.06" r="3.05"></circle>
      <circle class="cls-3" cx="59.48" cy="24.64" r="3.05"></circle>
      <circle class="cls-3" cx="60.36" cy="31.3" r="3.25"></circle>
      <circle class="cls-3" cx="56.43" cy="36.93" r="2.91"></circle>
      <circle class="cls-3" cx="41.67" cy="33.88" r="3.05"></circle>
      <circle class="cls-3" cx="56.14" cy="19.07" r="3.05"></circle>
      <circle class="cls-3" cx="73.7" cy="35.93" r="3.05"></circle>
      <circle class="cls-3" cx="71.91" cy="30.33" r="3.05"></circle>
      <circle class="cls-3" cx="29.33" cy="46.91" r="3.05"></circle>
      <circle class="cls-7" cx="22.24" cy="45.49" r="3.05"></circle>
      <circle class="cls-3" cx="28.97" cy="53.51" r="3.05"></circle>
      <circle class="cls-3" cx="79.66" cy="49.95" r="3.05"></circle>
      <circle class="cls-3" cx="73.86" cy="46.65" r="3.05"></circle>
      <circle class="cls-3" cx="68.18" cy="49.69" r="3.05"></circle>
      <circle class="cls-3" cx="62.68" cy="54.75" r="2.53"></circle>
      <circle class="cls-3" cx="56.95" cy="60.36" r="2.53"></circle>
      <circle class="cls-3" cx="68.87" cy="57" r="3.05"></circle>
      <circle class="cls-3" cx="65.57" cy="43.86" r="3.05"></circle>
      <circle class="cls-3" cx="61.34" cy="48.78" r="2.86"></circle>
      <circle class="cls-3" cx="56.75" cy="54.75" r="2.86"></circle>
      <circle class="cls-3" cx="50.59" cy="59.98" r="2.86"></circle>
      <circle class="cls-3" cx="47.22" cy="72.47" r="2.86"></circle>
      <circle class="cls-3" cx="46.59" cy="66.1" r="2.86"></circle>
      <circle class="cls-3" cx="50.08" cy="53.99" r="2.86"></circle>
      <circle class="cls-3" cx="43.7" cy="60.31" r="2.86"></circle>
      <circle class="cls-3" cx="36.52" cy="60.31" r="2.86"></circle>
      <circle class="cls-3" cx="71.23" cy="41.35" r="3.05"></circle>
      <circle class="cls-7" cx="48.71" cy="14.74" r="3.05"></circle>
      <circle class="cls-7" cx="36.52" cy="21.39" r="2.99"></circle>
      <circle class="cls-3" cx="48.71" cy="35.93" r="3.43"></circle>
      <circle class="cls-3" cx="30.93" cy="40.72" r="3.13"></circle>
      <circle class="cls-3" cx="34.49" cy="33.79" r="3.13"></circle>
      <circle class="cls-3" cx="37.54" cy="40.35" r="3.13"></circle>
      <circle class="cls-7" cx="29.33" cy="70.54" r="4.3"></circle>
      <circle class="cls-9" cx="24.04" cy="80.23" r="4.3"></circle>
      <circle class="cls-6" cx="20.37" cy="71.43" r="3.67"></circle>
      <circle class="cls-3" cx="73.86" cy="66.66" r="3.28"></circle>
      <circle class="cls-7" cx="87.91" cy="66.66" r="4.3"></circle>
      <circle class="cls-3" cx="68.18" cy="63.38" r="2.67"></circle>
      <circle class="cls-3" cx="62.84" cy="60.9" r="2.67"></circle>
      <circle class="cls-3" cx="64.46" cy="67.94" r="2.67"></circle>
      <circle class="cls-3" cx="52.39" cy="65.58" r="2.67"></circle>
      <circle class="cls-3" cx="58.48" cy="66.05" r="2.67"></circle>
      <circle class="cls-3" cx="60.15" cy="72.47" r="2.67"></circle>
      <circle class="cls-5" cx="96.59" cy="68.7" r="4.3"></circle>
      <circle class="cls-7" cx="19.74" cy="62.34" r="3.86"></circle>
      <circle class="cls-7" cx="21.37" cy="53.09" r="3.91"></circle>
      <circle class="cls-3" cx="116.83" cy="73.88" r="3.91"></circle>
      <circle class="cls-3" cx="115.2" cy="65.39" r="3.55"></circle>
      <circle class="cls-11" cx="124.25" cy="66.96" r="3.91"></circle>
      <circle class="cls-11" cx="157.49" cy="45.93" r="4.76"></circle>
      <circle class="cls-3" cx="137.84" cy="72.99" r="3.91"></circle>
      <circle class="cls-3" cx="76.74" cy="78.68" r="4.54"></circle>
      <circle class="cls-7" cx="107.1" cy="61.18" r="3.91"></circle>
      <circle class="cls-6" cx="99.38" cy="54.81" r="3.91"></circle>
      <circle class="cls-3" cx="46.89" cy="29.71" r="3.05"></circle>
      <circle class="cls-3" cx="39.38" cy="27.68" r="3.05"></circle>
      <circle class="cls-7" cx="42.57" cy="17.39" r="3.05"></circle>
      <circle class="cls-3" cx="83.75" cy="31.77" r="2.78"></circle>
      <circle class="cls-3" cx="82.95" cy="25.87" r="2.6"></circle>
      <circle class="cls-3" cx="79.66" cy="21.3" r="2.68"></circle>
      <circle class="cls-3" cx="74.27" cy="17.65" r="2.68"></circle>
      <circle class="cls-3" cx="48.71" cy="48.04" r="2.68"></circle>
      <circle class="cls-3" cx="55.06" cy="13.18" r="2.68"></circle>
      <circle class="cls-3" cx="68.18" cy="14.74" r="3.05"></circle>
      <circle class="cls-3" cx="61.34" cy="13.18" r="3.12"></circle>
      <circle class="cls-3" cx="79.23" cy="35.59" r="3.05"></circle>
      <circle class="cls-3" cx="77.1" cy="41.2" r="3.05"></circle>
      <circle class="cls-2" cx="65.63" cy="36.85" r="6.14"></circle>
      <circle class="cls-3" cx="67.84" cy="34.49" r="1.94"></circle>
      <circle class="cls-7" cx="24.42" cy="38.97" r="3.05"></circle>
      <circle class="cls-7" cx="27.8" cy="32.55" r="3.05"></circle>
      <circle class="cls-7" cx="31.8" cy="26.66" r="3.05"></circle>
      <circle class="cls-5" cx="164.58" cy="38.64" r="5.23"></circle>
      <circle class="cls-1" cx="178.35" cy="27.34" r="3.75"></circle>
      <circle class="cls-6" cx="183.09" cy="22.12" r="3.05" transform="translate(119.5 195.23) rotate(-76.72)"></circle>
      <circle class="cls-9" cx="172.02" cy="32.55" r="4.3"></circle>
      <circle class="cls-9" cx="138.71" cy="62.9" r="3.91"></circle>
      <circle class="cls-6" cx="144.8" cy="57.17" r="4.95"></circle>
      <circle class="cls-7" cx="151.43" cy="51.75" r="3.91"></circle>
      <circle class="cls-3" cx="136.2" cy="81.44" r="3.05"></circle>
    </g>
    <g>
      <path d="M195.15,73.59c-.43-2.77-3.08-4.87-6.08-4.87-5.5,0-7.56,4.68-7.56,9.55s2.07,9.32,7.56,9.32c3.74,0,5.85-2.53,6.32-6.24h5.93c-.62,6.98-5.38,11.38-12.24,11.38-8.58,0-13.68-6.43-13.68-14.46s5.11-14.7,13.68-14.7c6.08,0,11.27,3.59,12.01,10.02h-5.93Z"></path>
      <path d="M214.36,71.37c6.35,0,10.45,4.21,10.45,10.64s-4.09,10.6-10.45,10.6-10.41-4.21-10.41-10.6,4.09-10.64,10.41-10.64ZM214.36,88.45c3.78,0,4.91-3.2,4.91-6.43s-1.13-6.47-4.91-6.47-4.87,3.24-4.87,6.47,1.13,6.43,4.87,6.43Z"></path>
      <path d="M228.31,71.91h5.26v3.74h.08c1.05-2.53,3.67-4.29,6.43-4.29.43,0,.82.08,1.21.2v5.15c-.51-.12-1.33-.2-1.99-.2-4.09,0-5.46,2.88-5.46,6.47v9.08h-5.54v-20.16Z"></path>
      <path d="M243.52,71.91h5.26v3.74h.08c1.05-2.53,3.67-4.29,6.43-4.29.43,0,.82.08,1.21.2v5.15c-.51-.12-1.33-.2-1.99-.2-4.09,0-5.46,2.88-5.46,6.47v9.08h-5.54v-20.16Z"></path>
      <path d="M263.32,83.34c.16,3.55,1.83,5.11,4.95,5.11,2.22,0,4.02-1.36,4.37-2.61h4.87c-1.56,4.79-4.87,6.78-9.43,6.78-6.35,0-10.29-4.37-10.29-10.6s4.17-10.64,10.29-10.64c6.86,0,10.21,5.77,9.79,11.97h-14.54ZM272.32,79.83c-.51-2.81-1.72-4.29-4.41-4.29-3.59,0-4.48,2.73-4.6,4.29h9.01Z"></path>
      <path d="M281.17,64.24h5.54v27.84h-5.54v-27.84Z"></path>
      <path d="M290.78,78.11c.31-5.15,4.95-6.75,9.47-6.75,4.02,0,8.85.9,8.85,5.73v10.49c0,1.83.19,3.67.7,4.48h-5.61c-.19-.62-.35-1.29-.39-1.95-1.75,1.83-4.29,2.5-6.78,2.5-3.86,0-6.86-1.91-6.86-6.04.08-9.16,13.65-4.25,13.41-8.77,0-2.34-1.64-2.73-3.59-2.73-2.14,0-3.47.86-3.67,3.04h-5.54ZM303.57,82.21c-.94.82-2.89.86-4.6,1.17-1.72.31-3.28.94-3.28,2.96s1.6,2.57,3.39,2.57c4.33,0,4.48-3.39,4.48-4.64v-2.07Z"></path>
      <path d="M320.34,71.91h4.05v3.7h-4.05v9.98c0,1.87.47,2.34,2.34,2.34.62,0,1.21-.04,1.72-.16v4.33c-.94.16-2.14.2-3.24.2-3.43,0-6.35-.74-6.35-4.8v-11.89h-3.35v-3.7h3.35v-6.04h5.54v6.04Z"></path>
      <path d="M333.11,68.8h-5.54v-4.56h5.54v4.56ZM327.58,71.91h5.54v20.16h-5.54v-20.16Z"></path>
      <path d="M347.08,71.37c6.35,0,10.45,4.21,10.45,10.64s-4.09,10.6-10.45,10.6-10.41-4.21-10.41-10.6,4.09-10.64,10.41-10.64ZM347.08,88.45c3.78,0,4.91-3.2,4.91-6.43s-1.13-6.47-4.91-6.47-4.87,3.24-4.87,6.47,1.13,6.43,4.87,6.43Z"></path>
      <path d="M361.03,71.91h5.26v2.81h.12c1.4-2.3,3.82-3.35,6.16-3.35,5.89,0,7.37,3.31,7.37,8.3v12.4h-5.54v-11.38c0-3.31-.94-4.95-3.55-4.95-3,0-4.29,1.68-4.29,5.77v10.57h-5.54v-20.16Z"></path>
      <path d="M177.14,104.67h8.62c5.18,0,9.07,3.28,9.07,9.88,0,5.8-2.97,10.11-9.07,10.11h-8.62v-19.99ZM181.53,120.96h3.92c2.55,0,4.98-1.57,4.98-5.99,0-4.03-1.43-6.61-5.77-6.61h-3.14v12.6Z"></path>
      <path d="M200.64,118.39c.11,2.55,1.32,3.67,3.56,3.67,1.6,0,2.88-.98,3.14-1.88h3.5c-1.12,3.44-3.5,4.87-6.78,4.87-4.56,0-7.39-3.14-7.39-7.62s3-7.64,7.39-7.64c4.93,0,7.34,4.14,7.03,8.6h-10.44ZM207.1,115.87c-.36-2.02-1.23-3.08-3.16-3.08-2.58,0-3.22,1.96-3.3,3.08h6.47Z"></path>
      <path d="M216.33,119.95c0,1.71,1.51,2.44,3.05,2.44,1.12,0,2.6-.45,2.6-1.85,0-1.2-1.68-1.65-4.51-2.24-2.32-.53-4.59-1.29-4.59-3.86,0-3.7,3.19-4.65,6.3-4.65s6.08,1.06,6.38,4.62h-3.78c-.11-1.54-1.29-1.96-2.72-1.96-.9,0-2.21.14-2.21,1.34,0,1.43,2.27,1.62,4.51,2.16,2.32.53,4.59,1.37,4.59,4.06,0,3.81-3.33,5.04-6.61,5.04s-6.66-1.26-6.8-5.1h3.78Z"></path>
      <path d="M232.35,107.94h-3.98v-3.28h3.98v3.28ZM228.38,110.18h3.98v14.48h-3.98v-14.48Z"></path>
      <path d="M249.22,123.73c0,2.38-.87,6.41-7.5,6.41-2.86,0-6.16-1.37-6.38-4.65h3.95c.36,1.48,1.54,1.99,2.97,1.99,2.21,0,3.22-1.48,3.19-3.58v-1.9h-.06c-.87,1.54-2.58,2.24-4.34,2.24-4.37,0-6.19-3.3-6.19-7.28,0-3.75,2.18-7.17,6.22-7.17,1.9,0,3.33.64,4.31,2.32h.06v-1.93h3.78v13.55ZM245.44,117.24c0-2.35-.81-4.45-3.39-4.45-2.24,0-3.22,1.96-3.22,4.12s.76,4.34,3.22,4.34c2.27,0,3.39-1.93,3.39-4Z"></path>
      <path d="M252.33,110.18h3.78v2.02h.08c1.01-1.65,2.74-2.41,4.42-2.41,4.23,0,5.29,2.38,5.29,5.96v8.9h-3.98v-8.18c0-2.38-.67-3.56-2.55-3.56-2.16,0-3.08,1.2-3.08,4.14v7.59h-3.98v-14.48Z"></path>
      <path d="M279.86,118.02c0,2.66,2.07,3.7,4.42,3.7,1.54,0,3.89-.45,3.89-2.49,0-2.18-3.02-2.49-5.94-3.3-2.97-.73-5.96-1.99-5.96-5.68,0-4.12,3.86-6.05,7.48-6.05,4.17,0,8.01,1.82,8.01,6.44h-4.26c-.14-2.38-1.82-3.02-3.95-3.02-1.4,0-3.02.59-3.02,2.27,0,1.54.95,1.76,5.96,3.02,1.48.34,5.94,1.32,5.94,5.82,0,3.67-2.86,6.41-8.32,6.41-4.42,0-8.6-2.18-8.51-7.11h4.26Z"></path>
      <path d="M304.39,115.28c-.25-1.65-1.23-2.49-2.94-2.49-2.55,0-3.39,2.58-3.39,4.7s.81,4.56,3.3,4.56c1.88,0,2.91-1.15,3.16-2.94h3.84c-.53,3.84-3.14,5.94-6.97,5.94-4.37,0-7.31-3.08-7.31-7.42s2.69-7.84,7.39-7.84c3.42,0,6.58,1.79,6.8,5.49h-3.89Z"></path>
      <path d="M314.62,107.94h-3.98v-3.28h3.98v3.28ZM310.65,110.18h3.98v14.48h-3.98v-14.48Z"></path>
      <path d="M320.98,118.39c.11,2.55,1.32,3.67,3.56,3.67,1.6,0,2.88-.98,3.14-1.88h3.5c-1.12,3.44-3.5,4.87-6.78,4.87-4.56,0-7.39-3.14-7.39-7.62s3-7.64,7.39-7.64c4.93,0,7.34,4.14,7.03,8.6h-10.44ZM327.44,115.87c-.36-2.02-1.23-3.08-3.16-3.08-2.58,0-3.22,1.96-3.3,3.08h6.47Z"></path>
      <path d="M333.71,110.18h3.78v2.02h.08c1.01-1.65,2.74-2.41,4.42-2.41,4.23,0,5.29,2.38,5.29,5.96v8.9h-3.98v-8.18c0-2.38-.67-3.56-2.55-3.56-2.16,0-3.08,1.2-3.08,4.14v7.59h-3.98v-14.48Z"></path>
      <path d="M359.99,115.28c-.25-1.65-1.23-2.49-2.94-2.49-2.55,0-3.39,2.58-3.39,4.7s.81,4.56,3.3,4.56c1.88,0,2.91-1.15,3.16-2.94h3.84c-.53,3.84-3.14,5.94-6.97,5.94-4.37,0-7.31-3.08-7.31-7.42s2.69-7.84,7.39-7.84c3.42,0,6.58,1.79,6.8,5.49h-3.89Z"></path>
      <path d="M369.45,118.39c.11,2.55,1.32,3.67,3.56,3.67,1.6,0,2.88-.98,3.14-1.88h3.5c-1.12,3.44-3.5,4.87-6.78,4.87-4.56,0-7.39-3.14-7.39-7.62s3-7.64,7.39-7.64c4.93,0,7.34,4.14,7.03,8.6h-10.44ZM375.92,115.87c-.36-2.02-1.23-3.08-3.16-3.08-2.58,0-3.22,1.96-3.3,3.08h6.47Z"></path>
    </g>
  </g>
</svg>
